<svg xmlns="http://www.w3.org/2000/svg" width="1456" height="916pt" viewBox="0 0 1092 916"><path fill="#123015" d="M390.73 29.72c16.81-3.74 34.13-3.81 51.26-3.13 34.52 2.53 67.39 14.25 100.02 25 26.47-13.24 55.42-21.58 84.92-24.11 8.03.1 16.05-1.38 24.07-.41 36.8.85 72.98 12.01 105.11 29.74 85.2 47.45 141.76 141.83 144.26 239.19 1.12 47.85-11.94 95.76-36.44 136.84-8.13 13.83-17.57 26.87-27.94 39.1-2.93 2.62-.74 6.73-1.66 10.06-3.94-4.8-5.78-10.84-7.76-16.62-2.32-7.01-2.67-14.62-.98-21.81 1.68-7.3 3.16-15.04 1.17-22.43-2.01-6.93-8.53-11.26-11.01-17.94-1.55-4.32-.31-8.92.36-13.28 1.2-.24 2.39-.56 3.59-.89-.43 4.5-1.72 9.18-.38 13.64 2.29 5.09 6.88 8.71 9.23 13.79 3.71 7.25 3.16 15.73 1.42 23.45-2.33 10.08-2.84 21.38 2.59 30.61 18.62-21.09 33.6-45.37 44.71-71.19 16.05-38.11 22.49-80.2 18.57-121.36-6.03-66.77-37.69-130.52-85.96-176.84-21.87-21.43-47.55-38.98-75.48-51.53-21.3-9.46-44.06-15.32-67.14-18.27-.59-.09-1.77-.27-2.37-.35-10.26-1.32-20.63-.42-30.94-.63-21.97 1.25-43.79 5.66-64.48 13.16-7.21 2.7-14.56 5.21-21.1 9.35 15.11 5.67 31.16 8.4 47.2 9.67.03 1.06.08 2.13.13 3.19-16.01.32-31.61-4.13-46.83-8.59-19.33-5.94-38.34-12.92-57.88-18.18-15.66-4.31-31.67-7.36-47.84-8.96-18.28-1.72-36.75-.12-54.68 3.65-19.99 4.45-39.67 10.43-58.61 18.24-8.88 3.89-17.88 7.64-26.16 12.73 8.47 2.11 17.79 2.31 25.11 7.62 4.5 3.02 7.31 8.32 7.16 13.75.04 8.47-4.59 15.88-7.02 23.76 6.96-1.88 13.95-5.28 21.32-4.14 3.71.42 6.56 3.79 6.44 7.51.1 6.83-2.87 13.22-3.61 19.96 10.15-4.16 19.55-11.3 30.93-11.47 3.82-.36 7.44 3.13 6.47 7.01-2.08 10.67-10.82 18.04-15.58 27.42 8.02-2.62 14.82-8.46 23.32-9.65 2.83-.58 5.89 1.26 6.13 4.27.75 6.34-3.57 11.83-4.07 18.02.94 1.44 2.68.79 4.06.59 3.63-.77 7.13-2.07 10.67-3.19l.2 3.03c-4.61 2.38-9.7 5.02-15.04 3.98-3.19-.73-4.46-4.48-3.38-7.33 1.63-5.16 3.85-10.2 4.1-15.69-11.32-.13-19.3 9.78-30.39 10.69.04-2.63-.13-5.47 1.42-7.75 5.39-8.94 14.69-16.47 14.95-27.69-10.81-.65-20.33 5.2-29.46 10.14-2.41 1.26-6.05 3.07-7.73-.19-1.31-6.32 2.58-12.25 3.19-18.45.28-2.51.76-6.47-2.31-7.43-7.52-1.81-14.36 3.01-21.62 3.92-1.9.46-4.35-1.04-3.59-3.2 1.02-6.15 4.71-11.45 6.08-17.51 1.2-4.96 1.64-10.95-2.01-15.03-4.77-5.35-12.21-6.88-18.98-7.96-6.09-.77-12.87-1.94-18.42 1.44-27.96 17.1-52.68 39.74-71.06 66.95-21.12 30.51-33.76 66.36-39.11 102.94-6.26 42.35-3.17 85.79 6.81 127.33.72 2.89 1.55 5.76 2.39 8.62 4.49-4.78 8.89-9.78 14.46-13.35 8.13-5.25 17.08-9.33 26.51-11.55 11.89-2.76 24.74-1.56 35.95-7.01 6.4-2.9 9.92-9.37 15.53-13.33-.07 7.07-6.48 11.51-11.73 15.11-12.52 7.91-27.99 5.35-41.67 9.43-12.72 3.62-25.17 9.89-33.72 20.25-6.78 7.91-10.2 18.92-8.01 29.23.68 3.27 2.5 6.85 5.92 7.89 2.45.36 4.2-1.93 5.87-3.36 10.71-11.33 21.29-23.64 35.73-30.3 10.38-4.74 22.75-4.69 33.14.02 15.85 6.77 28.1 19.47 39.15 32.31-.17.83-.51 2.47-.68 3.29-5.71-4.27-9.95-10.06-15.12-14.91-9.26-8.98-20-17.5-32.94-20.11-10.41-2.19-21.42.82-29.93 7.01-8.22 5.63-15.19 12.81-22.08 19.95-1.54 1.72-3.27 3.43-4.02 5.67.3 4.35 2.59 8.25 4.23 12.21 13.21 29.8 30.22 58.43 53.6 81.4 7.64 7.48 15.88 14.46 25.25 19.67 2.01 1.24 4.26 2.26 5.85 4.06 2.03 3.52 2.63 7.76 5.12 11.05 4.8 6.44 11.17 11.54 18.1 15.53.47-6.89.63-13.91 2.78-20.53 4.2-13.51 14.04-24.72 25.7-32.43 9.28-6.09 21.63-6.31 31.52-1.58 6.41 3.07 12.92 6.05 18.74 10.17 12.88 9.26 24.28 20.35 35.81 31.19 12.64 12.44 24.78 25.92 40.49 34.59 6.18 3.67 13.51 6.66 20.8 4.82 6.38-1.81 10.74-7.45 13.75-13.06 4.44-8.11 5.96-17.33 8.9-26 .69.1 2.08.29 2.77.38-.92 8.42-3.59 16.55-7.01 24.26-3.13 6.65-7.41 13.33-14.15 16.77-5.71 2.82-12.25 1.42-18.29.81-5.57 13.7-12.6 27.21-23.6 37.38-14.5 14.06-35.98 19.96-55.73 16.15-13.81-2.71-27.03-8.47-38.68-16.35-8.41-5.51-15.29-12.88-22.57-19.72-.61 11.25 2.12 23.05 9.44 31.85 8.68 10.8 21.41 17.41 34.44 21.46 11.33 3.77 23.17 5.49 34.93 7.33-.02 1.03-.03 2.07-.03 3.12-7.66-.25-15.16-1.89-22.65-3.33 7.19 16.77 16.36 32.62 25.25 48.53 16.28 27.75 34.26 54.99 57.65 77.33 3.07 3.02 6.46 5.7 10.02 8.12-.28-6-.57-12.01-1.43-17.95-.67-5.03-3.48-9.34-5.51-13.87 2.24.73 4.96 1.24 6.06 3.64 5.14 9.29 2.12 20.54 5.69 30.29.91 2.5 3.06 4.23 5.22 5.66 5.02 3.29 10.5 5.82 16.11 7.96-.09-4.5-.29-9.06-1.69-13.37-1.99-6.84-5.84-13.1-6.86-20.22-.54-3.59.53-7.11 1.4-10.54.78-.03 2.34-.1 3.11-.13-.59 4.51-1.37 9.16-.29 13.67 1.46 6.06 4.7 11.5 6.34 17.51 1.31 4.69 1.48 9.58 1.73 14.42 8.02 2.3 16.41 3.19 24.72 2.18 3.14-12.48-2.51-24.97-.63-37.48.27-2.52 1.85-4.77 4.14-5.85-.26 4.6-.92 9.18-.86 13.8.07 6.04 1.68 11.94 1.92 17.98.16 3.67-.22 7.34-.54 11 8.03-1.53 15.73-4.6 22.69-8.87 1.5-1.07 3.43-2.2 3.59-4.24 1.21-10.07-4.17-19.57-3.47-29.63.22-2.55.88-5.03 1.47-7.5.73.09 2.18.26 2.9.34-2.07 11.86 1.66 23.45 3.57 35.04 10.69-7.44 19.15-17.54 27.35-27.55 20.92-27.11 36.73-57.72 51.51-88.5 3.6-7.6 7.45-15.08 10.75-22.81-8.45.92-17.01 1.7-25.47.41-6.56-1.07-13.89-1.15-19.13-5.82 6.37-1.27 12.49 1.42 18.75 2.09 14.22 1.82 29.16.34 42.23-5.8 10.65-5.17 19.44-14.55 23-25.95 1.32-3.98 2.03-8.12 2.63-12.25-6.83 4.43-12.89 9.98-20.13 13.79-14.56 7.86-30.96 13.63-47.74 12.34-14.21-1.01-28.05-6.87-38.39-16.71-11.27-10.23-18.43-24-24.03-37.95-5.77.82-11.98 2.06-17.51-.48-7.21-3.24-11.6-10.35-14.82-17.23-3.37-7.82-6.46-16.03-6.49-24.67 3.45 1.33 4.05 5.19 4.89 8.32 1.84 7.74 4.4 15.47 8.89 22.12 3.02 4.34 7.3 8.3 12.69 9.21 6.08 1.01 12.15-1.17 17.4-4.1 12.5-6.98 22.91-16.97 33.37-26.6 15.24-14.82 30.31-30.06 47.89-42.14 9.67-6.39 20.74-12.24 32.69-11.46 10.29.51 18.89 7.14 25.93 14.1 8.86 8.72 14.99 20.31 16.37 32.73.95 6.91-.32 13.83-.8 20.72 10.01-5.52 19.06-13.55 23.83-24.11 1.52-3.26 1.36-6.93 1.1-10.43 6.53-5.36 13.78-9.76 20.35-15.07 9.65-7.63 19.14-15.51 27.99-24.06 2.22-1.78 2.23-4.66 1.69-7.21-2.68-14.6.1-29.41.51-44.08.11-5.03-1.55-9.83-3.35-14.45 1.48-.32 3.26-.39 4.12 1.16 2.83 4.52 2.28 10.18 2.4 15.3.1 15.76-3.63 31.94 1.25 47.35-13.4 13.55-28.15 25.72-43.6 36.86-2.44 1.96-6.19 3.18-6.61 6.73-1.02 4.93-3.22 9.46-5.14 14.07-.37 5.66.03 11.35.71 16.98.25 9.33.3 18.67.18 28.01.12 5.79-1.36 11.47-1.16 17.27 27.45 11.45 53.99 25.12 79.02 41.22 9.93 6.09 19.36 12.96 29.02 19.48 5.85-11.18 12.53-22.11 21.63-30.96 6.96-6.91 15.48-12.37 24.9-15.24 5.81-2.01 12.07-1.52 18.11-1.26 13.32 2.28 24.82 11.25 31.8 22.63 11.01 17.8 15.22 39.14 14.87 59.86.27 13.17-.64 26.36-3.29 39.27 7.07 7.01 14.19 14.04 19.98 22.18 22.57 30.48 35.44 66.65 46.79 102.47 3.49 11.1 6.76 22.27 10.51 33.29-.67.23-2.02.7-2.69.93-3.27-6.68-4.83-14-7.14-21.03-11-35.31-22.32-71.16-42.36-102.57-7.34-11-15.15-22.03-25.46-30.46-11.34 55.17-36.62 106.31-66.21 153.83-1.33-.01-2.65-.01-3.96 0 18.04-29.3 34.89-59.5 47.59-91.55 11.92-29.51 20.61-60.58 22.95-92.42.3-11.96.71-24.04-1.45-35.87-2.49-15.91-7.86-32.02-18.99-44.04-7.12-7.85-17.11-13.63-27.92-13.7-11.69-.66-22.78 4.8-31.5 12.2-10.71 9.38-19.41 21.17-24.95 34.3 4.55 5.36 9.35 10.62 12.7 16.85 8.32 15.19 11.76 32.54 12.57 49.7 1.33 11.86-.09 23.75-.75 35.6-4.15 43.82-15.12 86.58-26.04 129.1-.78-.04-2.33-.14-3.11-.18 3.81-18.16 9.11-35.96 12.98-54.1 5.06-22.41 9.61-44.98 12.13-67.83 1.85-15.26 1.39-30.66 1.21-45.99-1.35-18.37-5.46-37.46-16.95-52.32-6.64-8.86-16.43-14.4-25.32-20.68-22.48-15.23-46.05-28.9-70.69-40.34-6.79-3.11-13.51-6.44-20.68-8.59-2.47 9.66-5.99 20.08-14.76 25.83-14.06 9.38-31.8 8.53-47.96 8.23-4.84-.4-8.44 3.23-12.33 5.46-4.39 2.81-9.52 3.98-14.28 5.97-3.91 1.43-4.07 6.25-4.61 9.73-6.98 80.44-24.58 160.42-56.83 234.64-.83 0-2.48.02-3.31.02 3.92-11.8 9.42-23 13.49-34.75 19.21-51.68 31.65-105.73 38.84-160.35 1.33-10.34 3.04-20.68 3.03-31.14-5.28 7.9-8.63 16.85-13 25.24-13.48 26.58-27.98 52.92-46.91 76.07-6.83 8.13-14.32 15.76-22.44 22.6-13.79 11.17-31.25 19.08-49.3 17.99-17.57-1.16-33.79-9.68-47.34-20.51-29.38-24.34-50.6-56.75-69.56-89.45-3.87-6.4-6.74-13.43-11.52-19.25-.29 9.87 1.28 19.65 2.4 29.42 6.97 53.42 23.45 105.18 44.23 154.74 4.02 9.87 8.75 19.44 12.7 29.35l-3.27.2c-14.37-29.94-26.41-61-36.4-92.66-12.4-39.06-20.84-79.5-23.5-120.44-.38-4.68.09-9.63-2-13.99-2.06-4.26-4.15-8.52-6.38-12.69-1.35-3.16-4.69-4.38-7.71-5.31-11.83-3.64-23.65-8.6-32.81-17.15-2.09-1.8-4.16-4.18-7.14-4.19-12.78-.56-26.7-.5-37.73-7.94-8.08-5.46-10.7-15.46-12.86-24.39-15.92 5.09-31.5 11.51-45.82 20.2-13.47 8.12-25.92 17.89-37.38 28.66-14.29 14.13-20.38 34.22-23.25 53.61-2.14 11.95-1.52 24.12-1.59 36.19-.1 12.57 1.8 25.03 3.32 37.47 4.91 35.43 13.25 70.26 21.96 104.91 1.54 5.87 3.1 11.75 3.79 17.79-.6-.04-1.82-.11-2.43-.15-1.45-3.47-2.35-7.14-3.23-10.78-10.56-42.85-21.47-85.85-25.5-129.91-2.32-22.26-2.16-44.91 2.29-66.9 2.48-11.35 6.59-22.38 12.54-32.37 2.28-3.92 5.46-7.22 7.84-11.08 1.33-1.92.07-4.25-.67-6.13-5.16-10.84-13.34-20.73-24.46-25.78-11.8-5.53-26.06-4-37.19 2.45-14.47 8.14-24.43 22.4-30.64 37.49-7.43 18.88-9.47 39.53-8.28 59.67 2.38 33.07 12.69 65.09 26.64 95 9.2 19.5 19.89 38.28 31.71 56.31 7 10.92 14.85 21.26 22.2 31.93-1.37 0-2.74 0-4.11.02-21.03-28.63-40.29-58.76-54.9-91.21-6.54-13.68-11.22-28.12-16.21-42.41-9.72 10.18-17.22 22.2-24.65 34.08-19.26 31.9-33.79 66.29-50.37 99.57-.84-.06-2.5-.17-3.33-.22 7.71-16.25 15.48-32.47 23.21-48.71 15.14-31.23 31.15-62.56 54-88.96-2.07-11.34-5.15-22.52-6.38-34.02-1.57-14.71-1.74-29.65.12-44.35 3.15-19.89 10.23-39.95 24.18-54.9 8.87-9.67 21.01-16.79 34.17-18.2 12.95-1.31 26.13 4.03 35.09 13.35 6.21 6.09 10.54 13.8 14.02 21.71 18.91-16.85 40.06-31.69 63.86-40.7 6.66-1.79 13.16-4.12 19.59-6.61-1.59-23.1-2.22-46.26-2.36-69.41.38-3.21-2.42-4.89-4.89-6.08-15.76-8.93-28.59-22.19-40.16-35.93-18.78-23.2-33.11-49.78-43.89-77.54-3.63 1.8-8.48 1.96-11.11-1.59-6.29-8.48-5.59-20.21-1.36-29.44 1.72-2.72.22-5.73-.51-8.48-11.25-41.86-14.75-85.84-9.67-128.9 2.96-22.65 8.39-45.04 16.99-66.23 12.4-31.3 31.69-59.88 56.39-82.79 38.54-35.99 88.62-57.51 139.78-68.24z"/><path fill="#188330" d="M388.47 33.64c17.93-3.77 36.4-5.37 54.68-3.65 16.17 1.6 32.18 4.65 47.84 8.96 19.54 5.26 38.55 12.24 57.88 18.18 15.22 4.46 30.82 8.91 46.83 8.59-.05-1.06-.1-2.13-.13-3.19-16.04-1.27-32.09-4-47.2-9.67 6.54-4.14 13.89-6.65 21.1-9.35 20.69-7.5 42.51-11.91 64.48-13.16 10.31.21 20.68-.69 30.94.63-4.41-.58-9.6-.48-12.73 3.17-2.75 2.94-5.49 8.04-1.96 11.42-.62 2.21-.72 4.59.45 6.65 5.27 11.36 11.99 22.09 15.98 34.03 1.55 4.76 3.14 9.66 3.09 14.73-.08 4.42-2.51 8.29-4.81 11.89-5.29 7.89-11.18 15.41-18.03 22.01-2.82 2.7-5.39 5.65-7.58 8.87-2.19.09-5.52-.37-5.94 2.58-.39 5.06 3.09 9.44 6.44 12.86 3.24 2.96 7.25 6.26 11.92 5.76 3.09-.36 2.9-3.94 3.36-6.25 6.33-3.65 9.94-10.18 13.18-16.44 4.58-8.65 8.5-18.45 17.08-23.97 4.58-3.29 11.37-4.45 16-.62 6.69 5.38 9.8 13.79 12.26 21.74 5.31 17.75 7.05 36.29 8.81 54.66.4 15.66 1.49 31.33.32 46.98-.12 7.85-2.08 15.78-.32 23.56 1.7 7.6 6.23 14.1 10.57 20.42 2.71 4.05 5.81 8.15 6.54 13.11.51 3.25 1.11 6.55 2.71 9.48-.59 1.96-.5 4.46 1.72 5.37 6.14 2.83 13.08-1.63 16.23-6.93 1.57-2.14 1.14-4.88.52-7.27l2.51-.12c-.29-3.88-.48-7.93-2.45-11.39-3.35-6.69-9.57-11.51-12.47-18.44-1.79-5.76-.81-11.91-.97-17.84.43-17.41-1.88-35.16 2.83-52.19 5.85-2.64 8.42-9.1 9.57-15.02 1.65-8.41-1.47-17.2-7.05-23.51-1.57-1.91-4.05-2.53-6.38-2.79-1.44-11.33-6.21-21.96-12.05-31.67-5.6-9.44-13.4-17.52-22.56-23.53-2.69-1.73-5.7-2.83-8.68-3.91.22 1.22.44 2.44.68 3.67-.3-.2-.91-.59-1.21-.79.53-5.99 2.88-12.31.41-18.16-2.04-4.84-7.62-6.63-12.48-6.76-2.56-12.12-6.95-25.01-17.17-32.81.09-4.82-3.35-8.52-5.97-12.2 23.08 2.95 45.84 8.81 67.14 18.27 27.93 12.55 53.61 30.1 75.48 51.53 48.27 46.32 79.93 110.07 85.96 176.84 3.92 41.16-2.52 83.25-18.57 121.36-11.11 25.82-26.09 50.1-44.71 71.19-5.43-9.23-4.92-20.53-2.59-30.61 1.74-7.72 2.29-16.2-1.42-23.45-2.35-5.08-6.94-8.7-9.23-13.79-1.34-4.46-.05-9.14.38-13.64-1.2.33-2.39.65-3.59.89-3.59-.7-6.32 2.36-8.28 4.91-4.41 5.99-7.53 13.04-8.61 20.43-.56 4.5-.32 10 3.59 13.02 1.81 1.58 4.29.46 6.38.26 1.8 4.62 3.46 9.42 3.35 14.45-.41 14.67-3.19 29.48-.51 44.08.54 2.55.53 5.43-1.69 7.21-8.85 8.55-18.34 16.43-27.99 24.06-6.57 5.31-13.82 9.71-20.35 15.07.26 3.5.42 7.17-1.1 10.43-4.77 10.56-13.82 18.59-23.83 24.11.48-6.89 1.75-13.81.8-20.72-1.38-12.42-7.51-24.01-16.37-32.73-7.04-6.96-15.64-13.59-25.93-14.1-11.95-.78-23.02 5.07-32.69 11.46-17.58 12.08-32.65 27.32-47.89 42.14-10.46 9.63-20.87 19.62-33.37 26.6-5.25 2.93-11.32 5.11-17.4 4.1-5.39-.91-9.67-4.87-12.69-9.21-4.49-6.65-7.05-14.38-8.89-22.12-.84-3.13-1.44-6.99-4.89-8.32.03 8.64 3.12 16.85 6.49 24.67 3.22 6.88 7.61 13.99 14.82 17.23 5.53 2.54 11.74 1.3 17.51.48 5.6 13.95 12.76 27.72 24.03 37.95 10.34 9.84 24.18 15.7 38.39 16.71 16.78 1.29 33.18-4.48 47.74-12.34 7.24-3.81 13.3-9.36 20.13-13.79-.6 4.13-1.31 8.27-2.63 12.25-3.56 11.4-12.35 20.78-23 25.95-13.07 6.14-28.01 7.62-42.23 5.8-6.26-.67-12.38-3.36-18.75-2.09 5.24 4.67 12.57 4.75 19.13 5.82 8.46 1.29 17.02.51 25.47-.41-3.3 7.73-7.15 15.21-10.75 22.81-14.78 30.78-30.59 61.39-51.51 88.5-8.2 10.01-16.66 20.11-27.35 27.55-1.91-11.59-5.64-23.18-3.57-35.04-.72-.08-2.17-.25-2.9-.34-.59 2.47-1.25 4.95-1.47 7.5-.7 10.06 4.68 19.56 3.47 29.63-.16 2.04-2.09 3.17-3.59 4.24-6.96 4.27-14.66 7.34-22.69 8.87.32-3.66.7-7.33.54-11-.24-6.04-1.85-11.94-1.92-17.98-.06-4.62.6-9.2.86-13.8-2.29 1.08-3.87 3.33-4.14 5.85-1.88 12.51 3.77 25 .63 37.48-8.31 1.01-16.7.12-24.72-2.18-.25-4.84-.42-9.73-1.73-14.42-1.64-6.01-4.88-11.45-6.34-17.51-1.08-4.51-.3-9.16.29-13.67-.77.03-2.33.1-3.11.13-.87 3.43-1.94 6.95-1.4 10.54 1.02 7.12 4.87 13.38 6.86 20.22 1.4 4.31 1.6 8.87 1.69 13.37-5.61-2.14-11.09-4.67-16.11-7.96-2.16-1.43-4.31-3.16-5.22-5.66-3.57-9.75-.55-21-5.69-30.29-1.1-2.4-3.82-2.91-6.06-3.64 2.03 4.53 4.84 8.84 5.51 13.87.86 5.94 1.15 11.95 1.43 17.95-3.56-2.42-6.95-5.1-10.02-8.12-23.39-22.34-41.37-49.58-57.65-77.33-8.89-15.91-18.06-31.76-25.25-48.53 7.49 1.44 14.99 3.08 22.65 3.33 0-1.05.01-2.09.03-3.12-11.76-1.84-23.6-3.56-34.93-7.33-13.03-4.05-25.76-10.66-34.44-21.46-7.32-8.8-10.05-20.6-9.44-31.85 7.28 6.84 14.16 14.21 22.57 19.72 11.65 7.88 24.87 13.64 38.68 16.35 19.75 3.81 41.23-2.09 55.73-16.15 11-10.17 18.03-23.68 23.6-37.38 6.04.61 12.58 2.01 18.29-.81 6.74-3.44 11.02-10.12 14.15-16.77 3.42-7.71 6.09-15.84 7.01-24.26-.69-.09-2.08-.28-2.77-.38-2.94 8.67-4.46 17.89-8.9 26-3.01 5.61-7.37 11.25-13.75 13.06-7.29 1.84-14.62-1.15-20.8-4.82-15.71-8.67-27.85-22.15-40.49-34.59-11.53-10.84-22.93-21.93-35.81-31.19-5.82-4.12-12.33-7.1-18.74-10.17-9.89-4.73-22.24-4.51-31.52 1.58-11.66 7.71-21.5 18.92-25.7 32.43-2.15 6.62-2.31 13.64-2.78 20.53-6.93-3.99-13.3-9.09-18.1-15.53-2.49-3.29-3.09-7.53-5.12-11.05-1.59-1.8-3.84-2.82-5.85-4.06-9.37-5.21-17.61-12.19-25.25-19.67-23.38-22.97-40.39-51.6-53.6-81.4-1.64-3.96-3.93-7.86-4.23-12.21.75-2.24 2.48-3.95 4.02-5.67 6.89-7.14 13.86-14.32 22.08-19.95 8.51-6.19 19.52-9.2 29.93-7.01 12.94 2.61 23.68 11.13 32.94 20.11 5.17 4.85 9.41 10.64 15.12 14.91.17-.82.51-2.46.68-3.29 2.16 2.72 5.67 4.73 9.15 3.18 7.05-2.1 8.7-11.96 3.82-17.04.75-.22 2.24-.66 2.98-.88-6.91-9.72-16.31-18.19-19.54-30.07-2.7-9.03-.82-19.27 5.27-26.52 4.06-5.37 9.98-8.9 14.26-14.08-.67-.38-2-1.15-2.67-1.53-7.67-4.39-16.81-7.3-25.67-5.49-5.75 1.33-12.15 5.28-12.28 11.85-5.61 3.96-9.13 10.43-15.53 13.33-11.21 5.45-24.06 4.25-35.95 7.01-9.43 2.22-18.38 6.3-26.51 11.55-5.57 3.57-9.97 8.57-14.46 13.35-.84-2.86-1.67-5.73-2.39-8.62-9.98-41.54-13.07-84.98-6.81-127.33 5.35-36.58 17.99-72.43 39.11-102.94 18.38-27.21 43.1-49.85 71.06-66.95 5.55-3.38 12.33-2.21 18.42-1.44 6.77 1.08 14.21 2.61 18.98 7.96 3.65 4.08 3.21 10.07 2.01 15.03-1.37 6.06-5.06 11.36-6.08 17.51-.76 2.16 1.69 3.66 3.59 3.2 7.26-.91 14.1-5.73 21.62-3.92 3.07.96 2.59 4.92 2.31 7.43-.61 6.2-4.5 12.13-3.19 18.45 1.68 3.26 5.32 1.45 7.73.19 9.13-4.94 18.65-10.79 29.46-10.14-.26 11.22-9.56 18.75-14.95 27.69-1.55 2.28-1.38 5.12-1.42 7.75 11.09-.91 19.07-10.82 30.39-10.69-.25 5.49-2.47 10.53-4.1 15.69-1.08 2.85.19 6.6 3.38 7.33 5.34 1.04 10.43-1.6 15.04-3.98l-.2-3.03c-3.54 1.12-7.04 2.42-10.67 3.19-1.38.2-3.12.85-4.06-.59.5-6.19 4.82-11.68 4.07-18.02-.24-3.01-3.3-4.85-6.13-4.27-8.5 1.19-15.3 7.03-23.32 9.65 4.76-9.38 13.5-16.75 15.58-27.42.97-3.88-2.65-7.37-6.47-7.01-11.38.17-20.78 7.31-30.93 11.47.74-6.74 3.71-13.13 3.61-19.96.12-3.72-2.73-7.09-6.44-7.51-7.37-1.14-14.36 2.26-21.32 4.14 2.43-7.88 7.06-15.29 7.02-23.76.15-5.43-2.66-10.73-7.16-13.75-7.32-5.31-16.64-5.51-25.11-7.62 8.28-5.09 17.28-8.84 26.16-12.73 18.94-7.81 38.62-13.79 58.61-18.24z"/><path fill="#4ea040" d="M652.16 34.15c3.13-3.65 8.32-3.75 12.73-3.17.6.08 1.78.26 2.37.35 2.62 3.68 6.06 7.38 5.97 12.2-.55 5.27 3.94 8.76 6.31 12.92 4.04 6.14 5.64 13.42 7.33 20.47 1.17-.2 2.34-.4 3.53-.58 4.86.13 10.44 1.92 12.48 6.76 2.47 5.85.12 12.17-.41 18.16.3.2.91.59 1.21.79 8.3 4.34 16.23 9.76 21.87 17.37 9 10.94 14.1 24.36 18.06 37.81.67.06 2.01.2 2.68.26 2.33.26 4.81.88 6.38 2.79 5.58 6.31 8.7 15.1 7.05 23.51-1.15 5.92-3.72 12.38-9.57 15.02-1.69 1.06-3.82 1.96-4.34 4.09-1.85 5.5-1.95 11.38-2.2 17.12-.18 11.99.08 23.98-.05 35.97.03 4.94-.26 10.12 1.74 14.76 2.5 5.77 7.18 10.15 10.6 15.35 2.55 3.8 3.64 8.32 4.8 12.69.62 2.39 1.05 5.13-.52 7.27-3.15 5.3-10.09 9.76-16.23 6.93-2.22-.91-2.31-3.41-1.72-5.37 2.67-5.33 1.33-11.39-1.42-16.37-4.14-8.05-10.46-14.86-13.81-23.33-1.95-4.74-1.8-9.97-1.57-14.99 2.32-27.71 1.17-55.63-2.04-83.22-1.7-12.2-3.9-24.42-8.07-36.04-3.07-8-6.99-16.92-15.22-20.77-6.21-3.02-13.37-.19-18.5 3.68-11.5 8.8-14.14 24.12-23.34 34.73-1.9 2.04-3.11 4.58-3.18 7.39-.46 2.31-.27 5.89-3.36 6.25-4.67.5-8.68-2.8-11.92-5.76-3.35-3.42-6.83-7.8-6.44-12.86.42-2.95 3.75-2.49 5.94-2.58 2.01.05 4.18-.13 5.61-1.75 9.31-8.83 17.72-18.7 24.4-29.68 2.39-4.14 4.76-8.79 4.06-13.74-2.24-16.79-11.68-31.2-18.58-46.31-1.17-2.46-2.87-4.6-4.59-6.7-3.53-3.38-.79-8.48 1.96-11.42z"/><path fill="#123015" d="M673.23 43.53c10.22 7.8 14.61 20.69 17.17 32.81-1.19.18-2.36.38-3.53.58-1.69-7.05-3.29-14.33-7.33-20.47-2.37-4.16-6.86-7.65-6.31-12.92zm-22.58 8.69c-1.17-2.06-1.07-4.44-.45-6.65 1.72 2.1 3.42 4.24 4.59 6.7 6.9 15.11 16.34 29.52 18.58 46.31.7 4.95-1.67 9.6-4.06 13.74-6.68 10.98-15.09 20.85-24.4 29.68-1.43 1.62-3.6 1.8-5.61 1.75 2.19-3.22 4.76-6.17 7.58-8.87 6.85-6.6 12.74-14.12 18.03-22.01 2.3-3.6 4.73-7.47 4.81-11.89.05-5.07-1.54-9.97-3.09-14.73-3.99-11.94-10.71-22.67-15.98-34.03zM703 98.38c2.98 1.08 5.99 2.18 8.68 3.91 9.16 6.01 16.96 14.09 22.56 23.53 5.84 9.71 10.61 20.34 12.05 31.67-.67-.06-2.01-.2-2.68-.26-3.96-13.45-9.06-26.87-18.06-37.81-5.64-7.61-13.57-13.03-21.87-17.37-.24-1.23-.46-2.45-.68-3.67zm-21.4 18.2c5.13-3.87 12.29-6.7 18.5-3.68 8.23 3.85 12.15 12.77 15.22 20.77 4.17 11.62 6.37 23.84 8.07 36.04 3.21 27.59 4.36 55.51 2.04 83.22-.23 5.02-.38 10.25 1.57 14.99 3.35 8.47 9.67 15.28 13.81 23.33 2.75 4.98 4.09 11.04 1.42 16.37-1.6-2.93-2.2-6.23-2.71-9.48-.73-4.96-3.83-9.06-6.54-13.11-4.34-6.32-8.87-12.82-10.57-20.42-1.76-7.78.2-15.71.32-23.56 1.17-15.65.08-31.32-.32-46.98-1.76-18.37-3.5-36.91-8.81-54.66-2.46-7.95-5.57-16.36-12.26-21.74-4.63-3.83-11.42-2.67-16 .62-8.58 5.52-12.5 15.32-17.08 23.97-3.24 6.26-6.85 12.79-13.18 16.44.07-2.81 1.28-5.35 3.18-7.39 9.2-10.61 11.84-25.93 23.34-34.73zm64.21 86.32c.52-2.13 2.65-3.03 4.34-4.09-4.71 17.03-2.4 34.78-2.83 52.19.16 5.93-.82 12.08.97 17.84 2.9 6.93 9.12 11.75 12.47 18.44 1.97 3.46 2.16 7.51 2.45 11.39l-2.51.12c-1.16-4.37-2.25-8.89-4.8-12.69-3.42-5.2-8.1-9.58-10.6-15.35-2-4.64-1.71-9.82-1.74-14.76.13-11.99-.13-23.98.05-35.97.25-5.74.35-11.62 2.2-17.12z"/><path fill="#4ea040" d="M295.8 319.79c8.86-1.81 18 1.1 25.67 5.49-5.56 4.44-11.3 8.89-15.42 14.78-5.59 7.82-7.61 18.17-4.89 27.44 3.29 12.1 11.54 21.97 20.01 30.86 4.88 5.08 3.23 14.94-3.82 17.04-3.48 1.55-6.99-.46-9.15-3.18-11.05-12.84-23.3-25.54-39.15-32.31-10.39-4.71-22.76-4.76-33.14-.02-14.44 6.66-25.02 18.97-35.73 30.3-1.67 1.43-3.42 3.72-5.87 3.36-3.42-1.04-5.24-4.62-5.92-7.89-2.19-10.31 1.23-21.32 8.01-29.23 8.55-10.36 21-16.63 33.72-20.25 13.68-4.08 29.15-1.52 41.67-9.43 5.25-3.6 11.66-8.04 11.73-15.11.13-6.57 6.53-10.52 12.28-11.85z"/><path fill="#123015" d="M306.05 340.06c4.12-5.89 9.86-10.34 15.42-14.78.67.38 2 1.15 2.67 1.53-4.28 5.18-10.2 8.71-14.26 14.08-6.09 7.25-7.97 17.49-5.27 26.52 3.23 11.88 12.63 20.35 19.54 30.07-.74.22-2.23.66-2.98.88-8.47-8.89-16.72-18.76-20.01-30.86-2.72-9.27-.7-19.62 4.89-27.44z"/><path fill="#4ea040" d="M807.83 394.83c1.96-2.55 4.69-5.61 8.28-4.91-.67 4.36-1.91 8.96-.36 13.28 2.48 6.68 9 11.01 11.01 17.94 1.99 7.39.51 15.13-1.17 22.43-1.69 7.19-1.34 14.8.98 21.81 1.98 5.78 3.82 11.82 7.76 16.62l.49.67c-1.66 2.88-2.85 6.47-6.06 8.01-3.6 2.06-7.83 1.71-11.8 1.67-4.88-15.41-1.15-31.59-1.25-47.35-.12-5.12.43-10.78-2.4-15.3-.86-1.55-2.64-1.48-4.12-1.16-2.09.2-4.57 1.32-6.38-.26-3.91-3.02-4.15-8.52-3.59-13.02 1.08-7.39 4.2-14.44 8.61-20.43z"/><path fill="#123015" d="M590.39 507.38c4.86-3.57 9.35-8.02 15.34-9.62l-.04 3.01c-9.96 7.11-20.68 13.94-27.38 24.48-2 3.24-3.31 6.84-4.62 10.4-.74.06-2.22.2-2.96.26.37-2.53.6-5.14 1.73-7.47 4.02-8.45 10.55-15.44 17.93-21.06zm-130.27-6.03c8.53 2.72 15.87 8.2 22.68 13.86 6.18 5.84 12.33 12.64 14.31 21.14-3.96.25-4.98-4.07-6.83-6.69-7.08-11.91-19.26-19.32-31.15-25.71.25-.65.74-1.95.99-2.6z"/><path fill="#b2f671" d="M348.49 505.53c7.81-4.31 17.07-3.31 25.23-.64-.58 5.98-2.43 11.75-3.33 17.69-2.42 12.98-2.32 26.26-1.82 39.41.38 5.28 1.21 10.55 1.02 15.87.23-.95.46-1.89.7-2.82 1.2 18.53 6.51 36.54 8.36 55.01-7.14-2.03-13.28-6.38-19.31-10.54-15.8-11.54-29.05-27.12-36.04-45.53-4.18-11.59-5.58-24.6-1.67-36.45 4.24-13.71 14.58-24.92 26.86-32zm330.11 1.33c5.71-2.61 12.2-3.68 18.46-3.02 8.83 1.04 15.93 7.07 22.02 13.08 9.68 9.28 15.95 22.52 15.52 36.07.63 17.99-8.15 34.81-19.27 48.4-10.14 11.57-21.95 22.15-36.17 28.37.27-7.78 2.14-15.4 2.42-23.17 1.64-13.8 1-27.73.97-41.59.13-7.03-1.22-13.96-1.25-20.98-1.17-10.69-1.9-21.42-3.64-32.04.06-1.66-1.18-4.3.94-5.12zm-290.63 5.98c15.28 9.3 27.71 22.41 40.77 34.46 14.23 13.06 27.59 27.79 45.1 36.53-.66 5.23-3.33 9.87-5.57 14.55-6.74 13.38-16.8 25.59-30.25 32.6-6.8 3.49-14.3 6.13-22.04 5.86-7.47-.18-15.15.77-22.42-1.38-.65-4.14-1.11-8.31-1.37-12.49-2.74-22.3-6.86-44.48-7.64-66.98-.32-14.44-.12-29.07 3.42-43.15zm231.85 40.97c14.03-13.12 27.27-27.41 43.47-37.91 10.04 38.88 8.64 79.78 2.62 119.15-4.11 1.97-8.74 2.45-13.19 3.19-9.61.69-19.56.84-28.74-2.53-16.07-5.42-28.55-18.31-36.58-32.9-2.9-5.6-6.02-11.2-7.39-17.41 15.13-7.98 27.36-20.1 39.81-31.59z"/><path fill="#88824a" d="M284.27 528.86c2.47 1.19 5.27 2.87 4.89 6.08.14 23.15.77 46.31 2.36 69.41-6.43 2.49-12.93 4.82-19.59 6.61 5.34-3.2 11.56-4.3 17.21-6.76.33-.27.97-.83 1.3-1.1-.35-9.04-1.91-18.03-1.66-27.1-.14-11.32.28-22.68-.92-33.95-.19-3.04.06-6.09-.26-9.11-.72-1.64-2.18-2.77-3.33-4.08z"/><path fill="#188330" d="M292.28 540.95c3.79 4.45 7.36 9.18 12.05 12.76 3.34 2.76 7.28 4.66 10.72 7.28 2.11 1.59 2.32 4.45 3.06 6.8 2.29 10.16 7.38 19.4 13.09 28.01 3.14 4.46 1.59 10.15 2.07 15.22.26 8.95 4.33 17.06 7.76 25.13-11.78-.69-24.86-.02-34.89-7.31-8.01-5.78-10.41-16.01-11.62-25.26-2.75-20.77-2.14-41.74-2.24-62.63zm454.08 25.42c4.56-3.07 8.22-7.2 11.8-11.31.48 6.09.45 12.2 1.07 18.28.86 12.57.2 25.21-1.31 37.7-1.57 9-3.73 18.7-10.69 25.19-7.35 7.67-18.41 9.32-28.48 10.25-6.91.38-13.82.18-20.73.13 4.84-7.16 9.68-14.65 11.27-23.3 1.15-4.99.21-10.93 4.22-14.82 7.71-8.29 14.29-17.73 18.66-28.21 1.14-2.49 1.78-5.35 3.74-7.36 3.24-2.54 7.13-4.11 10.45-6.55z"/><path fill="#896c44" d="M245.56 627.53c14.32-8.69 29.9-15.11 45.82-20.2 2.16 8.93 4.78 18.93 12.86 24.39 11.03 7.44 24.95 7.38 37.73 7.94 2.98.01 5.05 2.39 7.14 4.19 9.16 8.55 20.98 13.51 32.81 17.15 3.02.93 6.36 2.15 7.71 5.31 2.23 4.17 4.32 8.43 6.38 12.69 2.09 4.36 1.62 9.31 2 13.99 2.66 40.94 11.1 81.38 23.5 120.44 9.99 31.66 22.03 62.72 36.4 92.66-46.96-.47-93.94-.07-140.91-.2h-90c-4.86.01-9.74-.14-14.59.27-.69-6.04-2.25-11.92-3.79-17.79-8.71-34.65-17.05-69.48-21.96-104.91-1.52-12.44-3.42-24.9-3.32-37.47.07-12.07-.55-24.24 1.59-36.19 2.87-19.39 8.96-39.48 23.25-53.61 11.46-10.77 23.91-20.54 37.38-28.66z"/><path fill="#123015" d="M508.34 607.28c2.91-.89 5.66 1.95 5.76 4.75.44 5.01-2.06 10.35-6.39 12.99-3.36 1.81-7.23-1.47-7.01-5.01.04-5.04 2.48-11.07 7.64-12.73zm26.91.67c3.8-1.7 7.33 1.77 8.95 4.9 1.53 3.04 1.85 6.69.97 9.98-.79 3.23-5.3 3.42-7.49 1.55-2.91-2.34-4.76-5.91-5.24-9.59-.27-2.5.33-5.63 2.81-6.84z"/><path fill="#896c44" d="M760.64 616.05c7.17 2.15 13.89 5.48 20.68 8.59 24.64 11.44 48.21 25.11 70.69 40.34 8.89 6.28 18.68 11.82 25.32 20.68 11.49 14.86 15.6 33.95 16.95 52.32.18 15.33.64 30.73-1.21 45.99-2.52 22.85-7.07 45.42-12.13 67.83-3.87 18.14-9.17 35.94-12.98 54.1-86.03-.01-172.06-.03-258.09.01 32.25-74.22 49.85-154.2 56.83-234.64.54-3.48.7-8.3 4.61-9.73 4.76-1.99 9.89-3.16 14.28-5.97 3.89-2.23 7.49-5.86 12.33-5.46 16.16.3 33.9 1.15 47.96-8.23 8.77-5.75 12.29-16.17 14.76-25.83z"/><path fill="#88824a" d="M141.6 625.51c11.13-6.45 25.39-7.98 37.19-2.45 11.12 5.05 19.3 14.94 24.46 25.78.74 1.88 2 4.21.67 6.13-2.38 3.86-5.56 7.16-7.84 11.08-5.95 9.99-10.06 21.02-12.54 32.37-4.45 21.99-4.61 44.64-2.29 66.9 4.03 44.06 14.94 87.06 25.5 129.91.88 3.64 1.78 7.31 3.23 10.78-8.92-.12-17.83.09-26.75-.1-7.35-10.67-15.2-21.01-22.2-31.93-11.82-18.03-22.51-36.81-31.71-56.31-13.95-29.91-24.26-61.93-26.64-95-1.19-20.14.85-40.79 8.28-59.67 6.21-15.09 16.17-29.35 30.64-37.49zm755.94 15.02c8.72-7.4 19.81-12.86 31.5-12.2 10.81.07 20.8 5.85 27.92 13.7 11.13 12.02 16.5 28.13 18.99 44.04 2.16 11.83 1.75 23.91 1.45 35.87-2.34 31.84-11.03 62.91-22.95 92.42-12.7 32.05-29.55 62.25-47.59 91.55-11.94.12-23.87-.08-35.79.17 10.92-42.52 21.89-85.28 26.04-129.1.66-11.85 2.08-23.74.75-35.6-.81-17.16-4.25-34.51-12.57-49.7-3.35-6.23-8.15-11.49-12.7-16.85 5.54-13.13 14.24-24.92 24.95-34.3z"/><path fill="#123015" d="M473.37 680.33c10.92-1.57 22.19-.77 32.78 2.38 4.81 1.46 9.75 2.83 14.84 2.68 9.5-.2 18.63-3.16 27.97-4.56 8.93-1.49 18.03-1.38 27.05-1.05 12.22.88 24.65 2.33 36.05 7.1 5.87 2.61 11.99 6.52 14.14 12.93 1.64 4.74-.83 9.88-4.55 12.87-6.05 4.9-14.02 6.73-21.67 6.83-9.5.36-18.94-1.51-27.89-4.57-15.18-5.25-31.39-3.1-47.11-3.53-7.39-.08-14.67 1.36-22.03 1.8-10.29.68-20.12 4.02-30.3 5.42-10.38 1.56-21.36 2.85-31.49-.68-4.32-1.45-8.31-5.14-8.4-9.96.17-5.72 4.11-10.44 8.23-14.02 9.14-7.63 20.73-11.82 32.38-13.64z"/><path fill="#42402a" d="M648.92 704.93c4.37-8.39 7.72-17.34 13-25.24.01 10.46-1.7 20.8-3.03 31.14-7.19 54.62-19.63 108.67-38.84 160.35-4.07 11.75-9.57 22.95-13.49 34.75-48.46-.11-96.92-.03-145.38-.04-3.95-9.91-8.68-19.48-12.7-29.35-20.78-49.56-37.26-101.32-44.23-154.74-1.12-9.77-2.69-19.55-2.4-29.42 4.78 5.82 7.65 12.85 11.52 19.25 18.96 32.7 40.18 65.11 69.56 89.45 13.55 10.83 29.77 19.35 47.34 20.51 18.05 1.09 35.51-6.82 49.3-17.99 8.12-6.84 15.61-14.47 22.44-22.6 18.93-23.15 33.43-49.49 46.91-76.07z"/><path fill="#5a5044" d="M476.43 683.58c11.18-1.15 22.58.12 33.17 3.89 15.56 4.72 30.93-3.01 46.41-3.98 15.92-.61 32.15-.38 47.57 4.08 6.49 2.02 13.44 4.54 17.65 10.2 2.3 2.97 2.35 7.48-.06 10.41-3.54 4.37-9.18 6.35-14.56 7.22-10.42 1.34-21.14.25-31.09-3.09-4.61-1.56-9.26-3.11-14.11-3.59-15.44-1.25-30.94-.68-46.4-.24-9.88.74-19.79 1.63-29.43 4.04-10.41 2.16-20.92 4.56-31.62 4.2-5.36-.05-11.09-.91-15.42-4.31-2.89-2.35-2.6-6.7-.69-9.56 3.98-6.43 10.66-10.62 17.43-13.65 6.7-2.97 13.86-4.89 21.15-5.62z"/><path fill="#123015" d="M455.76 700.73c10.62-3.79 22.06-4.67 33.25-5.17 16.46.18 32.97-.64 49.4.9 20.25 1.02 40.41 3.26 60.56 5.53 3.26.4 6.58.52 9.77 1.4 2.03 2.44-1.89 3.3-3.7 2.84-24.5-2.72-49.01-5.62-73.65-6.67-15.78-.89-31.62-1.42-47.4-.22-7.51.56-15.13 1.03-22.36 3.28-3.22 1.02-6.48 1.92-9.83 2.36.7-1.91 1.82-3.77 3.96-4.25z"/><path fill="#896c44" d="M910.82 905.91c29.59-47.52 54.87-98.66 66.21-153.83 10.31 8.43 18.12 19.46 25.46 30.46 20.04 31.41 31.36 67.26 42.36 102.57 2.31 7.03 3.87 14.35 7.14 21.03-26.32-.58-52.67-.09-78.99-.25-20.73.01-41.45-.03-62.18.02zM83.36 806.39c7.43-11.88 14.93-23.9 24.65-34.08 4.99 14.29 9.67 28.73 16.21 42.41 14.61 32.45 33.87 62.58 54.9 91.21-48.71-.05-97.42-.11-146.13.03 16.58-33.28 31.11-67.67 50.37-99.57z"/><path fill="#123015" d="M532.31 839.19c6.32-2.25 13.51 4.23 11.84 10.78-.86 6.92-10.45 10.15-15.4 5.28-5.48-4.5-3.29-14.27 3.56-16.06z"/><path fill="#88824a" d="M533.42 842.49c3.42-.99 7.8 1.67 7.36 5.5.59 4.29-4.63 7.41-8.31 5.51-4.78-1.85-4.27-10.11.95-11.01z"/></svg>